<svg width="36" height="36" viewBox="0 0 36 36" fill="none" xmlns="http://www.w3.org/2000/svg">
<path d="M36 18C36 27.9405 27.9406 36 18.0001 36C8.0596 36 0 27.9405 0 18C0 8.0595 8.0595 0 18 0C27.9405 0 36 8.0595 36 18Z" fill="url(#paint0_radial_31_79)"/>
<path d="M24.4008 29.6227C23.5781 29.0756 21.4317 27.9097 18.0805 27.9097C14.7293 27.9097 12.5829 29.0756 11.7602 29.6227C11.5213 29.7815 11.3803 30.0487 11.3803 30.3356C11.3803 30.8095 11.7644 31.1936 12.2383 31.1936H23.9229C24.3967 31.1936 24.7809 30.8095 24.7809 30.3356C24.7809 30.0487 24.6396 29.7816 24.4008 29.6227Z" fill="url(#paint1_linear_31_79)"/>
<path d="M22.642 21.6047C22.642 19.9767 23.7412 18.6553 25.0998 18.6553C26.4584 18.6553 27.5576 19.9767 27.5576 21.6047C27.5576 23.2327 26.4584 24.554 25.0998 24.554C23.7412 24.554 22.642 23.2327 22.642 21.6047Z" fill="url(#paint2_linear_31_79)"/>
<path d="M8.47861 21.6047C8.47861 19.9767 9.57781 18.6553 10.9364 18.6553C12.295 18.6553 13.3942 19.9767 13.3942 21.6047C13.3942 23.2327 12.295 24.554 10.9364 24.554C9.57781 24.554 8.47861 23.2327 8.47861 21.6047Z" fill="url(#paint3_linear_31_79)"/>
<path d="M22.1794 16.2526C22.2826 16.8183 22.4279 17.8969 22.581 18.4289C22.596 18.491 22.6371 18.5603 22.5848 18.4781C22.5377 18.4124 22.4766 18.3446 22.3983 18.2859C22.3766 18.2692 22.3373 18.2454 22.3474 18.2509L22.3414 18.2455C22.3292 18.2396 22.3198 18.2405 22.3308 18.2425C22.3503 18.2569 22.3932 18.2648 22.4345 18.272C23.8803 18.3807 25.3507 17.8675 26.8088 17.5726C27.7222 17.3645 28.636 17.1367 29.625 17.0188C29.9155 16.9842 30.1791 17.1916 30.2138 17.4821C30.2429 17.7247 30.1027 17.9479 29.8875 18.0359C29.0623 18.4058 28.206 18.8121 27.3317 19.1784C25.6521 19.8209 22.9774 21.077 21.2065 20.1661C21.0185 20.0712 20.8124 19.8679 20.7082 19.6989C20.1355 18.6325 20.1385 17.5657 20.0849 16.4139C20.1065 15.1193 21.9662 14.9858 22.1794 16.2526Z" fill="#C64200"/>
<path d="M15.9103 16.414C15.8568 17.5666 15.8593 18.6318 15.2872 19.699C15.2204 19.7915 15.1688 19.8708 15.061 19.9695C14.0338 20.8156 12.5266 20.452 11.4007 20.1625C9.53951 19.6421 7.82311 18.81 6.10771 18.036C5.83111 17.9229 5.70081 17.6013 5.82401 17.3283C5.92111 17.1117 6.14631 16.9925 6.37011 17.019C7.35921 17.137 8.27291 17.3647 9.18631 17.5728C10.6651 17.862 12.1661 18.4178 13.6303 18.256C13.6512 18.2512 13.6651 18.2463 13.6643 18.2427C13.6753 18.2407 13.6659 18.2398 13.6537 18.2457C13.6358 18.2593 13.5572 18.3122 13.527 18.3448C13.4582 18.4141 13.4557 18.4164 13.4104 18.4783C13.3581 18.5605 13.3992 18.4913 13.4141 18.4291C13.568 17.8952 13.7151 16.8054 13.8178 16.24C14.0492 14.9749 15.8947 15.1371 15.9103 16.414Z" fill="#C64200"/>
<defs>
<radialGradient id="paint0_radial_31_79" cx="0" cy="0" r="1" gradientUnits="userSpaceOnUse" gradientTransform="translate(18.072 7.359) scale(25.433)">
<stop offset="0.0056" stop-color="#F16B1F"/>
<stop offset="0.3476" stop-color="#F0681E"/>
<stop offset="0.5681" stop-color="#ED5F1D"/>
<stop offset="0.7541" stop-color="#E7501B"/>
<stop offset="0.9201" stop-color="#E03C19"/>
<stop offset="1" stop-color="#DC2F18"/>
</radialGradient>
<linearGradient id="paint1_linear_31_79" x1="18.081" y1="31.194" x2="18.081" y2="27.91" gradientUnits="userSpaceOnUse">
<stop stop-color="#8B3A0E"/>
<stop offset="1" stop-color="#472315"/>
</linearGradient>
<linearGradient id="paint2_linear_31_79" x1="25.1" y1="18.7139" x2="25.1" y2="24.1909" gradientUnits="userSpaceOnUse">
<stop offset="0.0056" stop-color="#3C466E"/>
<stop offset="1" stop-color="#252949"/>
</linearGradient>
<linearGradient id="paint3_linear_31_79" x1="10.936" y1="-6.00013" x2="10.936" y2="-6.00013" gradientUnits="userSpaceOnUse">
<stop offset="0.0056" stop-color="#3C466E"/>
<stop offset="1" stop-color="#252949"/>
</linearGradient>
</defs>
</svg>
