<svg width="36" height="36" viewBox="0 0 36 36" fill="none" xmlns="http://www.w3.org/2000/svg">
<path d="M36 18C36 27.9405 27.9406 36 18.0001 36C8.0596 36 0 27.9405 0 18C0 8.0595 8.0595 0 18 0C27.9405 0 36 8.0595 36 18Z" fill="url(#paint0_radial_31_76)"/>
<path d="M6.75 18.018C6.75 22.5517 9.0179 31.5 18 31.5C26.9821 31.5 29.2499 22.5517 29.2499 18.018C29.2499 17.658 25.6297 15.75 18 15.75C10.3703 15.75 6.75 17.658 6.75 18.018Z" fill="url(#paint1_linear_31_76)"/>
<path d="M10.2127 28.125C12.024 30.3659 14.5103 31.5 18.027 31.5C21.5415 31.5 23.994 30.3659 25.8053 28.125C24.5656 26.7975 22.2097 24.75 18.027 24.75C13.833 24.75 11.4615 26.7975 10.2127 28.125Z" fill="url(#paint2_linear_31_76)"/>
<path d="M13.9838 9.32644C14.5733 9.74714 15.1087 10.3456 14.8973 11.1016C14.7397 11.6731 14.4675 11.9274 13.9478 11.9274C12.1995 11.9521 10.107 12.5079 8.3138 13.3067C8.1653 13.3765 7.866 13.5092 7.5667 13.5002C7.2855 13.4911 7.0042 13.3674 6.8288 12.9647C6.6803 12.6114 6.6712 12.094 7.4521 11.6192C8.6738 10.8812 10.2825 10.5392 11.7517 10.2647C10.8271 9.58074 9.8348 9.00024 8.7885 8.53454C7.8299 8.09574 7.9357 7.50624 8.0595 7.18004C8.3497 6.46904 9.4297 6.74124 10.4849 7.24304C11.7156 7.81454 12.8858 8.51634 13.9838 9.32644ZM22.0252 9.32644C23.1143 8.51644 24.2843 7.81434 25.515 7.24284C26.5702 6.74104 27.6502 6.46874 27.9405 7.17984C28.0732 7.50614 28.1768 8.09564 27.2114 8.53434C26.1652 9.00004 25.1797 9.58054 24.2572 10.2645C25.7265 10.5391 27.3262 10.881 28.548 11.619C29.3377 12.0937 29.3197 12.6112 29.1713 12.9645C28.9958 13.3672 28.7145 13.491 28.4333 13.5C28.134 13.509 27.8348 13.3763 27.6863 13.3065C25.893 12.5077 23.8096 11.961 22.0523 11.9362C21.5416 11.9272 21.2603 11.6729 21.1027 11.1014C20.9002 10.3545 21.4357 9.74714 22.0252 9.32644Z" fill="url(#paint3_linear_31_76)"/>
<defs>
<radialGradient id="paint0_radial_31_76" cx="0" cy="0" r="1" gradientUnits="userSpaceOnUse" gradientTransform="translate(18.072 7.359) scale(25.433)">
<stop offset="0.0056" stop-color="#FEEB72"/>
<stop offset="0.3156" stop-color="#FDE86F"/>
<stop offset="0.5153" stop-color="#FCDF68"/>
<stop offset="0.6839" stop-color="#FBD05C"/>
<stop offset="0.8352" stop-color="#F9BB4B"/>
<stop offset="0.9737" stop-color="#F6A134"/>
<stop offset="1" stop-color="#F69B30"/>
</radialGradient>
<linearGradient id="paint1_linear_31_76" x1="18" y1="31.5" x2="18" y2="15.75" gradientUnits="userSpaceOnUse">
<stop stop-color="#8B3A0E"/>
<stop offset="1" stop-color="#472315"/>
</linearGradient>
<linearGradient id="paint2_linear_31_76" x1="18.009" y1="31.5" x2="18.009" y2="24.75" gradientUnits="userSpaceOnUse">
<stop stop-color="#D91F3A"/>
<stop offset="1" stop-color="#F85874"/>
</linearGradient>
<linearGradient id="paint3_linear_31_76" x1="18.001" y1="13.5001" x2="18.001" y2="6.74814" gradientUnits="userSpaceOnUse">
<stop offset="0.0056" stop-color="#3C466E"/>
<stop offset="1" stop-color="#252949"/>
</linearGradient>
</defs>
</svg>
