<svg width="36" height="36" viewBox="0 0 36 36" fill="none" xmlns="http://www.w3.org/2000/svg">
<path d="M18 36C27.9411 36 36 27.9411 36 18C36 8.05887 27.9411 0 18 0C8.05887 0 0 8.05887 0 18C0 27.9411 8.05887 36 18 36Z" fill="url(#paint0_linear_31_74)"/>
<path d="M11.161 16.3149H9.05799C8.04234 16.3149 7.21899 17.1383 7.21899 18.1539V26.1229C7.21899 27.1386 8.04234 27.9619 9.05799 27.9619H11.161C12.1766 27.9619 13 27.1386 13 26.1229V18.1539C13 17.1383 12.1766 16.3149 11.161 16.3149Z" fill="white"/>
<path d="M29 18.5557C29 17.8074 28.6681 17.1446 28.1568 16.6944C28.542 16.3063 28.7809 15.7728 28.7809 15.1841C28.7809 14.0012 27.8183 13.0386 26.6354 13.0386H22.9574V10.5866C22.9574 9.44859 22.6407 8.50149 22.0163 7.77209C21.4081 7.06209 20.4437 6.81489 19.5553 7.14319C18.643 7.48049 18.0533 8.32189 18.0533 9.28629V12.4256C18.0533 14.1201 15.6426 15.702 14.7135 16.1686C14.4112 16.3204 14.2235 17.0273 14.3753 17.3297V23.4598L16.2889 25.6272C16.8678 26.2061 17.6373 26.5249 18.456 26.5249H25.4095C26.5924 26.5249 27.555 25.5623 27.555 24.3794C27.555 24.2126 27.5296 24.0505 27.4926 23.8916C28.2496 23.5598 28.7811 22.8053 28.7811 21.9273C28.7811 21.3387 28.5422 20.8051 28.157 20.417C28.6683 19.9669 29 19.3041 29 18.5557Z" fill="white"/>
<defs>
<linearGradient id="paint0_linear_31_74" x1="18" y1="36" x2="18" y2="0" gradientUnits="userSpaceOnUse">
<stop stop-color="#0064E1"/>
<stop offset="0.9944" stop-color="#26B7FF"/>
</linearGradient>
</defs>
</svg>
