<svg width="36" height="36" viewBox="0 0 36 36" fill="none" xmlns="http://www.w3.org/2000/svg">
<path d="M18 36C27.9411 36 36 27.9411 36 18C36 8.05887 27.9411 0 18 0C8.05887 0 0 8.05887 0 18C0 27.9411 8.05887 36 18 36Z" fill="url(#paint0_linear_31_75)"/>
<path d="M26.3546 19.7705C21.2015 25.7882 18.5821 27.5602 18.4708 27.6286C18.3338 27.7313 18.1627 27.7742 18.0001 27.7742C17.8374 27.7742 17.6661 27.7314 17.5207 27.6286C17.418 27.5602 14.7987 25.7882 9.64559 19.7705C7.12889 16.8345 7.97629 13.2992 10.1163 11.3219C11.991 9.58424 15.1753 8.89084 18.0001 11.2105C20.8248 8.89084 24.0091 9.58424 25.8838 11.3219C28.0238 13.2992 28.8712 16.8345 26.3546 19.7705Z" fill="white"/>
<defs>
<linearGradient id="paint0_linear_31_75" x1="18" y1="36" x2="18" y2="0" gradientUnits="userSpaceOnUse">
<stop stop-color="#DD142E"/>
<stop offset="1" stop-color="#F75E7A"/>
</linearGradient>
</defs>
</svg>
