<svg width="36" height="36" viewBox="0 0 36 36" fill="none" xmlns="http://www.w3.org/2000/svg">
<path d="M36 18C36 27.9405 27.9406 36 18.0001 36C8.0596 36 0 27.9405 0 18C0 8.0595 8.0595 0 18 0C27.9405 0 36 8.0595 36 18Z" fill="url(#paint0_radial_31_78)"/>
<path d="M11.997 28.7235C11.997 29.0295 12.2084 29.25 12.5594 29.25C13.3514 29.25 14.4405 27.8437 18 27.8437C21.5595 27.8437 22.6485 29.25 23.4405 29.25C23.7915 29.25 24.0029 29.0294 24.0029 28.7235C24.0029 27.8258 22.1129 24.75 18 24.75C13.8871 24.75 11.997 27.8258 11.997 28.7235Z" fill="url(#paint1_linear_31_78)"/>
<path d="M8.09551 19.8021C8.09551 17.9729 9.24521 16.5059 10.6515 16.5059C12.0578 16.5059 13.2007 17.9729 13.2007 19.8021C13.2007 20.5581 12.9982 21.2601 12.6653 21.8226C12.5146 22.0701 12.2692 22.2546 11.988 22.3244C11.673 22.4122 11.1983 22.4999 10.6515 22.4999C10.098 22.4999 9.63231 22.4121 9.30831 22.3244C9.02701 22.2546 8.77951 22.0701 8.64011 21.8226C8.28011 21.2084 8.08651 20.5132 8.09551 19.8021Z" fill="url(#paint2_linear_31_78)"/>
<path d="M22.7993 19.8021C22.7993 17.9729 23.9423 16.5059 25.3485 16.5059C26.7637 16.5059 27.8955 17.9729 27.8955 19.8021C27.8955 20.5581 27.6953 21.2601 27.36 21.8226C27.2115 22.0701 26.973 22.2546 26.6828 22.3244C25.8143 22.5516 24.8896 22.5516 24.0121 22.3244C23.7308 22.2546 23.4856 22.0701 23.3349 21.8226C22.9748 21.2084 22.7902 20.5132 22.7993 19.8021Z" fill="url(#paint3_linear_31_78)"/>
<path d="M24.6497 11.9761C26.7949 12.1688 28.8505 13.2008 30.2954 14.7962C30.7849 15.3181 31.1577 15.9493 31.4382 16.592C31.5559 16.8617 31.4326 17.1758 31.1629 17.2935C30.9532 17.3856 30.7261 17.3288 30.5696 17.1827C30.0841 16.7875 29.6484 16.3974 29.1463 16.0838C27.6714 15.0907 25.9762 14.5087 24.2764 14.0293C23.0815 13.659 23.4121 11.8988 24.6497 11.9761Z" fill="#DE8009"/>
<path d="M11.7957 14.0591C9.5316 14.6711 7.3615 15.5839 5.6039 17.1826C5.1865 17.5907 4.5024 17.1247 4.7353 16.5919C5.7932 14.1127 8.3584 12.4943 10.9534 12.0406C11.1372 12.0105 11.2989 11.9924 11.5238 11.976C12.1019 11.9339 12.6046 12.3683 12.6467 12.9464C12.6882 13.4907 12.3057 13.9499 11.7957 14.0591Z" fill="#DE8009"/>
<path d="M30.4218 24.269C30.4218 24.269 26.939 29.1117 26.939 32.5172C26.939 34.4407 28.4983 36 30.4218 36C32.3453 36 33.9046 34.4407 33.9046 32.5172C33.9046 29.1118 30.4218 24.269 30.4218 24.269Z" fill="url(#paint4_linear_31_78)"/>
<path opacity="0.5" d="M30.4218 25.0649C30.4218 25.0649 28.9906 27.0549 28.9906 28.4543C28.9906 29.2447 29.6314 29.8855 30.4218 29.8855C31.2122 29.8855 31.853 29.2447 31.853 28.4543C31.853 27.0549 30.4218 25.0649 30.4218 25.0649Z" fill="url(#paint5_linear_31_78)"/>
<defs>
<radialGradient id="paint0_radial_31_78" cx="0" cy="0" r="1" gradientUnits="userSpaceOnUse" gradientTransform="translate(18.072 7.359) scale(25.433)">
<stop offset="0.0056" stop-color="#FEEB72"/>
<stop offset="0.3156" stop-color="#FDE86F"/>
<stop offset="0.5153" stop-color="#FCDF68"/>
<stop offset="0.6839" stop-color="#FBD05C"/>
<stop offset="0.8352" stop-color="#F9BB4B"/>
<stop offset="0.9737" stop-color="#F6A134"/>
<stop offset="1" stop-color="#F69B30"/>
</radialGradient>
<linearGradient id="paint1_linear_31_78" x1="18" y1="29.25" x2="18" y2="24.75" gradientUnits="userSpaceOnUse">
<stop stop-color="#8B3A0E"/>
<stop offset="1" stop-color="#472315"/>
</linearGradient>
<linearGradient id="paint2_linear_31_78" x1="10.648" y1="22.4999" x2="10.648" y2="16.5059" gradientUnits="userSpaceOnUse">
<stop offset="0.0056" stop-color="#3C466E"/>
<stop offset="1" stop-color="#252949"/>
</linearGradient>
<linearGradient id="paint3_linear_31_78" x1="25.347" y1="22.4949" x2="25.347" y2="-6.00014" gradientUnits="userSpaceOnUse">
<stop offset="0.0056" stop-color="#3C466E"/>
<stop offset="1" stop-color="#252949"/>
</linearGradient>
<linearGradient id="paint4_linear_31_78" x1="30.422" y1="36" x2="30.422" y2="24.269" gradientUnits="userSpaceOnUse">
<stop offset="0.0056" stop-color="#35CAFC"/>
<stop offset="1" stop-color="#007EDB"/>
</linearGradient>
<linearGradient id="paint5_linear_31_78" x1="30.422" y1="29.8858" x2="30.422" y2="25.0648" gradientUnits="userSpaceOnUse">
<stop stop-color="white"/>
<stop offset="1" stop-color="#007EDB"/>
</linearGradient>
</defs>
</svg>
